<?xml version="1.0" encoding="UTF-8"?><svg id="Logo" xmlns="http://www.w3.org/2000/svg" viewBox="0 0 153.6 100"><defs><style>.cls-1{fill:#fff;fill-rule:evenodd;}</style></defs><path class="cls-1" d="M122.13,33.51c-2.14-1.38-5.54-2.61-10.26-2.61-9.87,0-15.25,7.07-17.13,16.05-2.68,12.79,3.04,18.23,9.94,18.23,3.2,0,4.46-.88,4.46-.88l2.46-11.89h-7.55l1.57-7.55h18.07l-5.48,25.76s-5.3,2.37-14.41,2.37c-14.22,0-23.31-11.13-20.07-26.41,3.22-15.2,14.27-23.52,28.24-23.52,3.95,0,8.88,.67,12.16,2.17l-2.02,8.28Zm-49.46,38.47l10.03-47.83h-10.84l-10.04,47.83h10.84Zm-12.32-38.47c-2.67-1.27-6.43-2.5-10.11-2.5s-7.49,.87-8.21,4.62c-.7,3.66,2.58,5.82,8.08,8.86,8.91,4.93,9.7,10.65,8.58,16.03-1.83,8.76-9.84,12.52-19.29,12.42-8.81-.09-14.95-3.11-14.95-3.11l2.09-8.35c2.02,1.21,7.46,3.6,13.14,3.6,5.17,0,7.39-1.94,7.98-4.78,.78-3.75-1.02-6.14-6.09-8.96-6.76-3.76-12.17-7.86-10.55-15.6,2.03-9.71,11.19-12.68,18.92-12.68,4.38,0,8.92,.57,12.58,2.1l-2.16,8.35Zm93.25,16.49c0,27.61-34.38,50-76.8,50S0,77.61,0,50,34.38,0,76.8,0s76.8,22.39,76.8,50ZM76.8,6.82C37.9,6.82,6.37,26.15,6.37,50s31.53,43.18,70.43,43.18,70.43-19.33,70.43-43.18S115.7,6.82,76.8,6.82Z"/></svg>